<?xml version="1.0" encoding="utf-8"?>
<!-- Generator: Adobe Illustrator 14.0.0, SVG Export Plug-In . SVG Version: 6.00 Build 43363)  -->
<!DOCTYPE svg PUBLIC "-//W3C//DTD SVG 1.1//EN" "http://www.w3.org/Graphics/SVG/1.1/DTD/svg11.dtd" [
	<!ENTITY ns_extend "http://ns.adobe.com/Extensibility/1.0/">
	<!ENTITY ns_ai "http://ns.adobe.com/AdobeIllustrator/10.0/">
	<!ENTITY ns_graphs "http://ns.adobe.com/Graphs/1.0/">
	<!ENTITY ns_vars "http://ns.adobe.com/Variables/1.0/">
	<!ENTITY ns_imrep "http://ns.adobe.com/ImageReplacement/1.0/">
	<!ENTITY ns_sfw "http://ns.adobe.com/SaveForWeb/1.0/">
	<!ENTITY ns_custom "http://ns.adobe.com/GenericCustomNamespace/1.0/">
	<!ENTITY ns_adobe_xpath "http://ns.adobe.com/XPath/1.0/">
]>
<svg version="1.1" id="Layer_1" xmlns:x="&ns_extend;" xmlns:i="&ns_ai;" xmlns:graph="&ns_graphs;"
	 xmlns="http://www.w3.org/2000/svg" xmlns:xlink="http://www.w3.org/1999/xlink" x="0px" y="0px" width="827.958px"
	 height="308.984px" viewBox="0 0 827.958 308.984" enable-background="new 0 0 827.958 308.984" xml:space="preserve">
<switch>
	<g>
		<path fill="#5E3988" d="M17.544,291.258V92.508h99.75v22.25c0,0,12.406-10.479,30.182-18.869
			c10.233-4.826,30.263-8.186,39.568-8.631c28.848-1.382,39.848-0.716,49,1c7.181,1.618,70.75,9.5,70.75,62.75s0,140.25,0,140.25
			h-103.25v-111.75c0,0-0.775-10.579-9.583-18.205c-3.438-2.977-8.111-5.688-14.417-6.045c-12.652-0.716-20.985-1.383-29.661,0.834
			c-4.931,1.26-9.325,3.116-9.325,3.116s-6.086,2.755-10.583,7.918c-6.25,5.75-10,15.75-9.931,19.132l-0.5,105H17.544z"/>
		<path fill="#61AF4C" d="M353.043,22.007v64.75l-32-0.25l0.25,63.75h30.75l1.75,100.501c0,0,4.767,39.887,44.5,42.75l15,2.266
			l24.75,0.734l43.5-1.5c0,0,29-2.75,32-2.75l-0.5-54.25l-45-1.25c0,0-12.75,2.75-12.75-13c0-15.751-0.75-73.5-0.75-73.5l54.75,0
			v-63.5l-54.75,0v-64.75H353.043z"/>
		<rect x="540.294" y="21.258" fill="#61AF4C" width="103.5" height="269.25"/>
		<ellipse fill="#5E3988" cx="738.322" cy="126.889" rx="68.972" ry="46.382"/>
		<path fill="#5E3988" d="M807.294,249.891c0,25.617-30.879,46.379-68.971,46.379c-38.095,0-68.974-20.762-68.974-46.379
			s30.879-46.383,68.974-46.383C776.416,203.508,807.294,224.274,807.294,249.891z"/>
	</g>
</switch>
</svg>
